Coordinates
version=1
nRows=20
nColumns=38
inDegrees=no

Units are S.I. units (second, meters, Newtons, ...)
If the header above contains a line with 'inDegrees', this indicates whether rotational values are in degrees (yes) or radians (no).

endheader
time	pelvis_tilt	pelvis_list	pelvis_rotation	pelvis_tx	pelvis_ty	pelvis_tz	hip_flexion_r	hip_adduction_r	hip_rotation_r	knee_angle_r	ankle_angle_r	subtalar_angle_r	mtp_angle_r	hip_flexion_l	hip_adduction_l	hip_rotation_l	knee_angle_l	ankle_angle_l	subtalar_angle_l	mtp_angle_l	lumbar_extension	lumbar_bending	lumbar_rotation	arm_flex_r	arm_add_r	arm_rot_r	elbow_flex_r	pro_sup_r	wrist_flex_r	wrist_dev_r	arm_flex_l	arm_add_l	arm_rot_l	elbow_flex_l	pro_sup_l	wrist_flex_l	wrist_dev_l
0.6	-2.8263	1.4464	-1.80205	0.56304	0.0952977	0.942743	-0.255892	0.0330824	-0.243114	0.126301	0.194807	0	0	0.48734	-0.104628	-0.305407	0.821477	0.281306	0	0	-0.284241	-0.0576823	-0.0226674	-0.157099	-0.240363	-0.0149936	0.779096	0.380262	0	0	-0.111885	-0.109155	0.264395	0.402169	1.5708	0	0
0.61	-2.83892	1.44833	-1.79	0.562715	0.105727	0.94057	-0.268024	0.0362831	-0.241808	0.124565	0.203145	0	0	0.484204	-0.098277	-0.320774	0.753776	0.284275	0	0	-0.282484	-0.0564383	-0.0241477	-0.156419	-0.238889	-0.0166377	0.777428	0.390316	0	0	-0.105425	-0.112962	0.287652	0.400888	1.5708	0	0
0.62	-2.83736	1.44893	-1.79244	0.56223	0.116198	0.938373	-0.280209	0.0363801	-0.242736	0.125344	0.21432	0	0	0.47652	-0.0868632	-0.332773	0.679437	0.285076	0	0	-0.282003	-0.0573931	-0.0275763	-0.153956	-0.239356	-0.00955587	0.775981	0.373352	0	0	-0.0995715	-0.115519	0.299098	0.397946	1.5708	0	0
0.63	-2.83902	1.45015	-1.79183	0.561691	0.126798	0.935919	-0.292	0.0367678	-0.242757	0.126265	0.226201	0	0	0.467592	-0.0746227	-0.341121	0.603265	0.285679	0	0	-0.280793	-0.0578614	-0.0304656	-0.151829	-0.238405	-0.00839196	0.773268	0.376838	0	0	-0.0938496	-0.119542	0.316185	0.395344	1.5708	0	0
0.64	-2.8372	1.45019	-1.79383	0.561072	0.137428	0.933387	-0.304762	0.0363186	-0.24489	0.128349	0.238988	0	0	0.454558	-0.058795	-0.341625	0.521946	0.283392	0	0	-0.281023	-0.0592907	-0.0344791	-0.149173	-0.23688	-0.00797021	0.769912	0.380266	0	0	-0.0874359	-0.123877	0.332407	0.39068	1.5708	0	0
0.65	-2.82749	1.44945	-1.80231	0.560281	0.148038	0.930794	-0.318221	0.034828	-0.248846	0.130772	0.252112	0	0	0.436517	-0.0378282	-0.328805	0.431916	0.274539	0	0	-0.282286	-0.0618399	-0.0402915	-0.145849	-0.234839	-0.00775972	0.765849	0.382479	0	0	-0.0811599	-0.128672	0.346994	0.385689	1.5708	0	0
0.66	-2.80177	1.45148	-1.82808	0.559413	0.158374	0.928285	-0.326339	0.0309993	-0.250637	0.135993	0.26459	0	0	0.403931	-0.00482827	-0.27518	0.303632	0.245104	0	0	-0.280863	-0.0646859	-0.0449831	-0.141599	-0.232516	-0.00932413	0.760555	0.384118	0	0	-0.0792855	-0.13819	0.367525	0.395161	1.5708	0	0
0.67	-2.85005	1.48288	-1.78963	0.557437	0.170806	0.923957	-0.303282	0.0365103	-0.241701	0.148287	0.27593	0	0	0.427929	-0.0117922	-0.286621	0.253178	0.242169	0	0	-0.244419	-0.038485	-0.0461374	-0.141434	-0.242217	-0.00716718	0.759182	0.392725	0	0	-0.148136	-0.170076	0.0805547	0.651478	0.693355	0	0
0.68	-2.81233	1.47807	-1.83402	0.55702	0.182228	0.921834	-0.31799	0.0274205	-0.243783	0.15642	0.289193	0	0	0.362225	0.0218357	-0.190295	0.0852956	0.173708	0	0	-0.248186	-0.045811	-0.0449195	-0.137874	-0.240505	-0.00664798	0.753553	0.393109	0	0	-0.1462	-0.180966	0.104472	0.658325	0.699371	0	0
0.69	-2.85201	1.47557	-1.8003	0.556829	0.193998	0.918921	-0.332122	0.0268746	-0.245448	0.165293	0.302271	0	0	0.330586	0.0275647	-0.156511	0.00265073	0.142047	0	0	-0.248312	-0.0473326	-0.0356496	-0.141921	-0.238957	-0.0126187	0.751779	0.390816	0	0	-0.144724	-0.233748	0.506093	0.627432	1.5708	0	0
0.7	-2.8803	1.47565	-1.77465	0.556658	0.205371	0.915823	-0.339508	0.0304626	-0.240897	0.179401	0.31121	0	0	0.33393	0.0262802	-0.166117	0	0.142109	0	0	-0.248579	-0.0473912	-0.0352846	-0.140262	-0.236706	-0.0167132	0.746446	0.416461	0	0	-0.148482	-0.24978	0.517424	0.654954	1.5708	0	0
0.71	-2.90921	1.47501	-1.75112	0.556529	0.21709	0.913019	-0.348867	0.0295967	-0.240463	0.192217	0.320694	0	0	0.334199	0.0253131	-0.172541	0	0.143974	0	0	-0.249282	-0.0483308	-0.0334817	-0.138409	-0.236228	-0.0125524	0.742846	0.408796	0	0	-0.145895	-0.253638	0.512525	0.652363	1.5708	0	0
0.72	-2.91789	1.47396	-1.74919	0.556372	0.229183	0.910478	-0.356758	0.0252119	-0.242453	0.208917	0.330302	0	0	0.330862	0.0264232	-0.17631	0	0.14623	0	0	-0.249539	-0.0515675	-0.0306197	-0.136841	-0.235272	-0.0085933	0.738066	0.402656	0	0	-0.144143	-0.257577	0.507619	0.648434	1.5708	0	0
0.73	-2.91292	1.47317	-1.76182	0.556159	0.241715	0.908155	-0.364144	0.0188936	-0.243693	0.226163	0.337916	0	0	0.324549	0.0289351	-0.177299	0	0.147435	0	0	-0.248452	-0.0562455	-0.0266347	-0.136169	-0.233904	-0.00479004	0.732006	0.397431	0	0	-0.144161	-0.26244	0.501991	0.646648	1.5708	0	0
0.74	-2.90971	1.47401	-1.77652	0.555882	0.254865	0.905997	-0.370139	0.00627927	-0.251057	0.244823	0.348092	0	0	0.313738	0.0320731	-0.17296	0	0.145807	0	0	-0.244544	-0.0604573	-0.0201257	-0.136034	-0.232742	-0.00156499	0.725234	0.392705	0	0	-0.14614	-0.266154	0.492263	0.644824	1.5708	0	0
0.75	-2.93358	1.4803	-1.75562	0.555276	0.267367	0.903069	-0.365919	0.00405206	-0.255726	0.271413	0.354399	0	0	0.37267	0.0122328	-0.266679	0.134183	0.215993	0	0	-0.236713	-0.0601001	-0.0187008	-0.137367	-0.231654	0.00347032	0.719018	0.383768	0	0	-0.147824	-0.268895	0.477359	0.642121	1.5708	0	0
0.76	-2.89794	1.47889	-1.79801	0.554835	0.280505	0.901531	-0.370822	-0.00643646	-0.255034	0.29314	0.353172	0	0	0.358758	0.0221526	-0.23428	0.132381	0.204769	0	0	-0.235078	-0.0679569	-0.0141185	-0.138783	-0.228546	0.00548654	0.71035	0.381001	0	0	-0.148501	-0.272681	0.465938	0.638195	1.5708	0	0
0.77	-2.86359	1.47727	-1.83748	0.55398	0.294002	0.900118	-0.3754	-0.0176073	-0.25805	0.316811	0.349661	0	0	0.360554	0.0259311	-0.233441	0.162143	0.206807	0	0	-0.232877	-0.0751401	-0.0107625	-0.141176	-0.22593	0.00762778	0.70133	0.378774	0	0	-0.150144	-0.275332	0.451206	0.634497	1.5708	0	0
0.78	-2.87285	1.48189	-1.8313	0.553034	0.307749	0.898177	-0.373454	-0.0222029	-0.259186	0.342751	0.342815	0	0	0.39333	0.0113545	-0.283207	0.245126	0.225853	0	0	-0.224234	-0.0760755	-0.00800494	-0.145397	-0.224086	0.0102773	0.692797	0.376313	0	0	-0.153489	-0.276552	0.431466	0.631079	1.5708	0	0
0.79	-2.77	1.47903	-1.9381	0.551713	0.321408	0.897786	-0.372093	-0.0421935	-0.266533	0.376251	0.332591	0	0	0.372797	0.0324918	-0.247244	0.214002	0.174141	0	0	-0.221141	-0.0898879	-0.0066091	-0.145721	-0.219491	0.0123802	0.677513	0.375293	0	0	-0.154949	-0.27874	0.412641	0.627698	1.53087	0	0
